<svg width="356" height="94" viewBox="0 0 356 94" fill="none" xmlns="http://www.w3.org/2000/svg">
<path d="M136.688 64.9448H147.348V29.0469H136.688V64.9448Z" fill="black"/>
<path d="M152.426 64.9448H162.96V45.7908L177.555 64.9448H186.947V29.0469H176.413V47.4398L162.452 29.0469H152.553V64.9448H152.426Z" fill="black"/>
<path d="M99.375 64.9466H110.036V53.0229H122.093L126.789 44.9047H110.036V37.9281H128.566L133.769 28.9219H99.375V64.8198V64.9466Z" fill="black"/>
<path d="M192.023 64.9466H202.684V53.0229H214.741L219.437 44.9047H202.684V37.9281H221.214L226.418 28.9219H192.023V64.8198V64.9466Z" fill="black"/>
<path d="M229.338 64.9448H254.467L259.671 55.9386H239.999V29.0469H229.338V64.9448Z" fill="black"/>
<path fill-rule="evenodd" clip-rule="evenodd" d="M279.469 65.7071C269.189 65.7071 260.812 57.3351 260.812 46.9336C260.812 36.5321 269.189 28.1602 279.469 28.1602C289.749 28.1602 298.126 36.5321 298.126 46.9336C298.126 57.3351 289.749 65.7071 279.469 65.7071ZM279.469 37.6737C274.393 37.6737 270.204 41.8597 270.204 46.9336C270.204 52.0075 274.393 56.1935 279.469 56.1935C284.546 56.1935 288.734 52.0075 288.734 46.9336C288.734 41.8597 284.546 37.6737 279.469 37.6737Z" fill="black"/>
<path d="M302.441 64.9466H312.848L324.398 44.9047L327.698 64.9466H335.313L356 29.0487H343.816L333.79 46.3L330.871 28.9219H322.748L312.722 46.3V29.0487H302.188V64.9466H302.441Z" fill="black"/>
<path d="M36.8052 15.9845L65.6152 32.6016L57.4926 37.295L28.6826 20.6779L11.8027 30.4452V63.2987L40.7396 79.9158L44.2933 77.8862L15.6102 61.1423L23.8598 56.449L52.4159 73.1929L69.5496 63.2987V30.4452L40.7396 13.8281L36.8052 15.9845Z" fill="#0046FF"/>
<path d="M40.7401 0L0 23.4668V70.4005L40.7401 93.8673L81.4802 70.4005V23.4668L40.7401 0ZM78.4342 25.3695V68.4978L40.6132 90.3156L2.91907 68.3709V25.3695L40.7401 3.55174L78.5611 25.3695H78.4342Z" fill="#0046FF"/>
</svg>
