<svg fill="none" height="120" viewBox="0 0 838 120" width="838" xmlns="http://www.w3.org/2000/svg"><g fill="#0046ff"><path d="m122.398 117.566h34.748v-114.73006h-34.748z"/><path d="m173.694 117.566h34.334v-61.2165l47.572 61.2165h30.612v-114.73006h-34.335v58.78376l-45.503-58.78376h-32.266v114.73006z"/><path d="m.780884 117.567h34.748016v-38.1083h39.2985l15.3057-25.946h-54.6042v-22.2973h60.3956l16.9605-28.78376h-112.104116v114.72936z"/><path d="m302.758 117.567h34.748v-38.1083h39.298l15.306-25.946h-54.604v-22.2973h60.396l16.96-28.78376h-112.104v114.72936z"/><path d="m424.376 117.566h81.906l16.96-28.7841h-64.118v-85.94596h-34.748z"/><path clip-rule="evenodd" d="m587.777 120c-33.507 0-60.81-26.7568-60.81-60s27.303-60 60.81-60 60.809 26.7568 60.809 60-27.302 60-60.809 60zm0-89.5946c-16.547 0-30.198 13.3784-30.198 29.5946s13.651 29.5946 30.198 29.5946c16.546 0 30.197-13.3784 30.197-29.5946s-13.651-29.5946-30.197-29.5946z" fill-rule="evenodd"/><path d="m662.651 117.567h33.921l37.644-64.0543 10.755 64.0543h24.82l67.428-114.72995h-39.712l-32.68 55.13515-9.514-55.54056h-26.475l-32.68 55.54056v-55.13515h-34.334v114.72995z"/></g></svg>